<?xml version="1.0" encoding="UTF-8" standalone="no"?>
<!DOCTYPE svg PUBLIC "-//W3C//DTD SVG 1.1//EN" "http://www.w3.org/Graphics/SVG/1.1/DTD/svg11.dtd">
<svg xmlns:dc="http://purl.org/dc/elements/1.1/" xmlns:xl="http://www.w3.org/1999/xlink" version="1.1" xmlns="http://www.w3.org/2000/svg" viewBox="3.5 11.269 69.128 53.981" width="69.128" height="53.981">
  <defs/>
  <metadata> Produced by OmniGraffle 7.7.1 
    <dc:date>2018-03-11 13:44:40 +0000</dc:date>
  </metadata>
  <g id="Canvas_1" fill-opacity="1" stroke-dasharray="none" stroke="none" stroke-opacity="1" fill="none">
    <title>Canvas 1</title>
    <g id="Canvas_1: Layer 1">
      <title>Layer 1</title>
      <g id="Group_3">
        <title>g1</title>
        <g id="Graphic_7">
          <title>polygon1</title>
          <path d="M 39.389 13.769 L 22.235 28.606 L 6 28.606 L 6 47.699 L 21.989 47.699 L 39.389 62.75 Z" fill="#929292"/>
          <path d="M 39.389 13.769 L 22.235 28.606 L 6 28.606 L 6 47.699 L 21.989 47.699 L 39.389 62.75 Z" stroke="#929292" stroke-linecap="butt" stroke-linejoin="round" stroke-width="5"/>
        </g>
        <g id="Graphic_6">
          <title>path1</title>
          <path d="M 48.128 49.03 C 50.057 45.934 51.19 42.291 51.19 38.377 C 51.19 34.399 50.026 30.703 48.043 27.577" stroke="#929292" stroke-linecap="round" stroke-linejoin="round" stroke-width="5"/>
        </g>
        <g id="Graphic_5">
          <title>path2</title>
          <path d="M 55.082 20.537 C 58.777 25.523 60.966 31.694 60.966 38.377 C 60.966 44.998 58.815 51.115 55.178 56.076" stroke="#929292" stroke-linecap="round" stroke-linejoin="round" stroke-width="5"/>
        </g>
        <g id="Graphic_4">
          <title>path1</title>
          <path d="M 61.71 62.611 C 66.977 55.945 70.128 47.531 70.128 38.378 C 70.128 29.161 66.936 20.696 61.609 14.01" stroke="#929292" stroke-linecap="round" stroke-linejoin="round" stroke-width="5"/>
        </g>
      </g>
    </g>
  </g>
</svg>
